<svg id="Camada_1" data-name="Camada 1" xmlns="http://www.w3.org/2000/svg" xmlns:xlink="http://www.w3.org/1999/xlink" viewBox="0 0 200.5 111.04"><defs><style>.cls-1,.cls-11,.cls-12,.cls-13,.cls-14,.cls-15,.cls-5,.cls-8{fill:none;}.cls-2{clip-path:url(#clip-path);}.cls-3{opacity:0.2;}.cls-4{clip-path:url(#clip-path-4);}.cls-5{stroke:#c293c2;stroke-width:5px;}.cls-11,.cls-12,.cls-13,.cls-14,.cls-15,.cls-5,.cls-8{stroke-linecap:round;stroke-linejoin:round;}.cls-6{opacity:0.25;}.cls-7{clip-path:url(#clip-path-5);}.cls-8{stroke:#be8bbe;stroke-width:4px;}.cls-9{opacity:0.3;}.cls-10{clip-path:url(#clip-path-6);}.cls-11,.cls-13{stroke:#ad69a8;}.cls-11{stroke-width:3.15px;}.cls-12{stroke:#97388c;stroke-width:2.5px;}.cls-13{stroke-width:1.95px;}.cls-14{stroke:#c08fc0;stroke-width:1.25px;}.cls-15{stroke:#d0afd4;stroke-width:0.5px;}</style><clipPath id="clip-path" transform="translate(-163.75 -186.48)"><rect class="cls-1" x="64" y="42" width="400" height="400"/></clipPath><clipPath id="clip-path-4" transform="translate(-163.75 -186.48)"><rect class="cls-1" x="163.75" y="186.48" width="200.5" height="111.04"/></clipPath><clipPath id="clip-path-5" transform="translate(-163.75 -186.48)"><rect class="cls-1" x="164.25" y="186.98" width="199.5" height="110.04"/></clipPath><clipPath id="clip-path-6" transform="translate(-163.75 -186.48)"><rect class="cls-1" x="164.68" y="187.4" width="198.65" height="109.19"/></clipPath></defs><g class="cls-2"><g class="cls-2"><g class="cls-2"><g class="cls-3"><g class="cls-4"><path class="cls-5" d="M166.25,254.57H194c1.55-5.23,3.36-10,4.84-9.84,2.92.35,2.45,19.58,4.21,19.68,2.21.12,4.71-30.14,6.83-30.06,2.29.09,2.13,35.44,4.2,35.53,2.36.09,4.87-45.41,7.89-45.37,3.24,0,4.09,52.45,6.83,52.47,2.93,0,4.81-65.61,7.36-65.59s3,70.42,6.3,70.51c3.8.1,8.07-93,11-92.92,3.16.11,1.68,105.94,4.73,106,2.77.09,6.81-87,10-86.91,3,.09,2.51,77.52,5.79,77.62,2.95.08,6.22-63,9.45-62.86,3,.09,3.15,55.67,6.31,55.75,3,.08,5.58-48.72,8.93-48.65s4.3,48.08,7.36,48.11c2.75,0,4.6-38.86,7.36-38.81,2.57,0,3.74,33.89,6.31,33.89,2.3,0,2.65-27.42,7.35-27.88,2-.2,4.15,4.62,5.78,9.29h28.91" transform="translate(-163.75 -186.48)"/></g></g><g class="cls-6"><g class="cls-7"><path class="cls-8" d="M166.25,254.57H194c1.55-5.23,3.36-10,4.84-9.84,2.92.35,2.45,19.58,4.21,19.68,2.21.12,4.71-30.14,6.83-30.06,2.29.09,2.13,35.44,4.2,35.53,2.36.09,4.87-45.41,7.89-45.37,3.24,0,4.09,52.45,6.83,52.47,2.93,0,4.81-65.61,7.36-65.59s3,70.42,6.3,70.51c3.8.1,8.07-93,11-92.92,3.16.11,1.68,105.94,4.73,106,2.77.09,6.81-87,10-86.91,3,.09,2.51,77.52,5.79,77.62,2.95.08,6.22-63,9.45-62.86,3,.09,3.15,55.67,6.31,55.75,3,.08,5.58-48.72,8.93-48.65s4.3,48.08,7.36,48.11c2.75,0,4.6-38.86,7.36-38.81,2.57,0,3.74,33.89,6.31,33.89,2.3,0,2.65-27.42,7.35-27.88,2-.2,4.15,4.62,5.78,9.29h28.91" transform="translate(-163.75 -186.48)"/></g></g><g class="cls-9"><g class="cls-10"><path class="cls-11" d="M166.25,254.57H194c1.55-5.23,3.36-10,4.84-9.84,2.92.35,2.45,19.58,4.21,19.68,2.21.12,4.71-30.14,6.83-30.06,2.29.09,2.13,35.44,4.2,35.53,2.36.09,4.87-45.41,7.89-45.37,3.24,0,4.09,52.45,6.83,52.47,2.93,0,4.81-65.61,7.36-65.59s3,70.42,6.3,70.51c3.8.1,8.07-93,11-92.92,3.16.11,1.68,105.94,4.73,106,2.77.09,6.81-87,10-86.91,3,.09,2.51,77.52,5.79,77.62,2.95.08,6.22-63,9.45-62.86,3,.09,3.15,55.67,6.31,55.75,3,.08,5.58-48.72,8.93-48.65s4.3,48.08,7.36,48.11c2.75,0,4.6-38.86,7.36-38.81,2.57,0,3.74,33.89,6.31,33.89,2.3,0,2.65-27.42,7.35-27.88,2-.2,4.15,4.62,5.78,9.29h28.91" transform="translate(-163.75 -186.48)"/></g></g><path class="cls-12" d="M166.25,254.57H194c1.55-5.23,3.36-10,4.84-9.84,2.92.35,2.45,19.58,4.21,19.68,2.21.12,4.71-30.14,6.83-30.06,2.29.09,2.13,35.44,4.2,35.53,2.36.09,4.87-45.41,7.89-45.37,3.24,0,4.09,52.45,6.83,52.47,2.93,0,4.81-65.61,7.36-65.59s3,70.42,6.3,70.51c3.8.1,8.07-93,11-92.92,3.16.11,1.68,105.94,4.73,106,2.77.09,6.81-87,10-86.91,3,.09,2.51,77.52,5.79,77.62,2.95.08,6.22-63,9.45-62.86,3,.09,3.15,55.67,6.31,55.75,3,.08,5.58-48.72,8.93-48.65s4.3,48.08,7.36,48.11c2.75,0,4.6-38.86,7.36-38.81,2.57,0,3.74,33.89,6.31,33.89,2.3,0,2.65-27.42,7.35-27.88,2-.2,4.15,4.62,5.78,9.29h28.91" transform="translate(-163.75 -186.48)"/><path class="cls-13" d="M166.25,254.57H194c1.55-5.23,3.36-10,4.84-9.84,2.92.35,2.45,19.58,4.21,19.68,2.21.12,4.71-30.14,6.83-30.06,2.29.09,2.13,35.44,4.2,35.53,2.36.09,4.87-45.41,7.89-45.37,3.24,0,4.09,52.45,6.83,52.47,2.93,0,4.81-65.61,7.36-65.59s3,70.42,6.3,70.51c3.8.1,8.07-93,11-92.92,3.16.11,1.68,105.94,4.73,106,2.77.09,6.81-87,10-86.91,3,.09,2.51,77.52,5.79,77.62,2.95.08,6.22-63,9.45-62.86,3,.09,3.15,55.67,6.31,55.75,3,.08,5.58-48.72,8.93-48.65s4.3,48.08,7.36,48.11c2.75,0,4.6-38.86,7.36-38.81,2.57,0,3.74,33.89,6.31,33.89,2.3,0,2.65-27.42,7.35-27.88,2-.2,4.15,4.62,5.78,9.29h28.91" transform="translate(-163.75 -186.48)"/><path class="cls-14" d="M166.25,254.57H194c1.55-5.23,3.36-10,4.84-9.84,2.92.35,2.45,19.58,4.21,19.68,2.21.12,4.71-30.14,6.83-30.06,2.29.09,2.13,35.44,4.2,35.53,2.36.09,4.87-45.41,7.89-45.37,3.24,0,4.09,52.45,6.83,52.47,2.93,0,4.81-65.61,7.36-65.59s3,70.42,6.3,70.51c3.8.1,8.07-93,11-92.92,3.16.11,1.68,105.94,4.73,106,2.77.09,6.81-87,10-86.91,3,.09,2.51,77.52,5.79,77.62,2.95.08,6.22-63,9.45-62.86,3,.09,3.15,55.67,6.31,55.75,3,.08,5.58-48.72,8.93-48.65s4.3,48.08,7.36,48.11c2.75,0,4.6-38.86,7.36-38.81,2.57,0,3.74,33.89,6.31,33.89,2.3,0,2.65-27.42,7.35-27.88,2-.2,4.15,4.62,5.78,9.29h28.91" transform="translate(-163.75 -186.48)"/><path class="cls-15" d="M166.25,254.57H194c1.55-5.23,3.36-10,4.84-9.84,2.92.35,2.45,19.58,4.21,19.68,2.21.12,4.71-30.14,6.83-30.06,2.29.09,2.13,35.44,4.2,35.53,2.36.09,4.87-45.41,7.89-45.37,3.24,0,4.09,52.45,6.83,52.47,2.93,0,4.81-65.61,7.36-65.59s3,70.42,6.3,70.51c3.8.1,8.07-93,11-92.92,3.16.11,1.68,105.94,4.73,106,2.77.09,6.81-87,10-86.91,3,.09,2.51,77.52,5.79,77.62,2.95.08,6.22-63,9.45-62.86,3,.09,3.15,55.67,6.31,55.75,3,.08,5.58-48.72,8.93-48.65s4.3,48.08,7.36,48.11c2.75,0,4.6-38.86,7.36-38.81,2.57,0,3.74,33.89,6.31,33.89,2.3,0,2.65-27.42,7.35-27.88,2-.2,4.15,4.62,5.78,9.29h28.91" transform="translate(-163.75 -186.48)"/></g></g></g></svg>