<svg id="Camada_1" data-name="Camada 1" xmlns="http://www.w3.org/2000/svg" viewBox="0 0 72.21 73.18"><defs><style>.cls-1{fill:white;}</style></defs><path class="cls-1" d="M694,807.18a1,1,0,0,1,1,1v59a1,1,0,1,1-2,0v-59a1,1,0,0,1,1-1m0-6a7,7,0,0,0-7,7v59a7,7,0,1,0,14,0v-59a7,7,0,0,0-7-7Z" transform="translate(-628.8 -801.18)"/><path class="cls-1" d="M634.83,809.46,664.15,824l19.78,9.81-.09,7.63-19.55,10-29.16,14.85L635,837.84l-.15-28.38m-3.41-8.1a2.66,2.66,0,0,0-2.62,2.71l.18,33.8.18,33.81a2.66,2.66,0,0,0,2.61,2.68,2.57,2.57,0,0,0,1.16-.28L667,856.73l22.79-11.6.17-15-23.16-11.48-34.26-17a2.6,2.6,0,0,0-1.13-.27Z" transform="translate(-628.8 -801.18)"/></svg>