<?xml version="1.0" encoding="UTF-8"?>
<svg id="Layer_1" data-name="Layer 1" xmlns="http://www.w3.org/2000/svg" viewBox="0 0 195.5 110.04">
  <defs>
    <style>
      .cls-1 {
        fill: #6b2570;
        stroke: #6c2770;
        stroke-miterlimit: 10;
        stroke-width: 4px;
      }
    </style>
  </defs>
  <path class="cls-1" d="M0,67.59H27.74c1.55-5.23,3.36-10.01,4.84-9.84,2.92,.35,2.44,19.58,4.2,19.68,2.21,.12,4.71-30.14,6.83-30.06,2.29,.09,2.13,35.44,4.2,35.53,2.36,.1,4.86-45.41,7.88-45.37,3.24,.04,4.1,52.45,6.83,52.47,2.93,.03,4.81-65.61,7.36-65.59,2.64,.02,3.01,70.42,6.31,70.51,3.79,.1,8.07-93.02,11.04-92.92,3.16,.11,1.68,105.94,4.73,106.04,2.77,.09,6.81-87,9.99-86.91,2.99,.09,2.5,77.52,5.78,77.62,2.96,.08,6.23-62.96,9.46-62.86,3.03,.09,3.14,55.67,6.31,55.75,2.97,.08,5.58-48.72,8.93-48.65,3.32,.07,4.3,48.08,7.36,48.1,2.75,.02,4.6-38.86,7.36-38.81,2.57,.04,3.74,33.89,6.31,33.89,2.31,0,2.66-27.41,7.36-27.88,2.01-.2,4.15,4.62,5.78,9.29h28.9"/>
</svg>