<?xml version="1.0" encoding="UTF-8"?>
<svg id="Layer_1" data-name="Layer 1" xmlns="http://www.w3.org/2000/svg" viewBox="0 0 41 49.21">
  <defs>
    <style>
      .cls-1 {
        fill: white;
      }
    </style>
  </defs>
  <path class="cls-1" d="M7,6c.55,0,1,.45,1,1V42.21c0,.55-.45,1-1,1s-1-.45-1-1V7c0-.55,.45-1,1-1M7,0h0C3.13,0,0,3.13,0,7V42.21c0,3.87,3.13,7,7,7h0c3.87,0,7-3.13,7-7V7C14,3.13,10.87,0,7,0h0Z"/>
  <path class="cls-1" d="M34,6c.55,0,1,.45,1,1V42.21c0,.55-.45,1-1,1s-1-.45-1-1V7c0-.55,.45-1,1-1m0-6h0c-3.87,0-7,3.13-7,7V42.21c0,3.87,3.13,7,7,7h0c3.87,0,7-3.13,7-7V7c0-3.87-3.13-7-7-7h0Z"/>
</svg>