<?xml version="1.0" encoding="UTF-8"?>
<svg id="Layer_1" data-name="Layer 1" xmlns="http://www.w3.org/2000/svg" viewBox="0 0 71.62 72.14">
  <defs>
    <style>
      .cls-1 {
        fill: #6b2570;
      }
    </style>
  </defs>
  <path class="cls-1" d="M44.5,41.99l21.01,21.01-3.04,3.04-21.01-21.01,3.04-3.04m0-6.1c-1.47,0-2.95,.56-4.07,1.69l-3.39,3.39c-2.25,2.25-2.25,5.89,0,8.14l21.36,21.36c1.12,1.12,2.6,1.69,4.07,1.69s2.95-.56,4.07-1.69l3.39-3.39c2.25-2.25,2.25-5.89,0-8.14l-21.36-21.36c-1.12-1.12-2.6-1.69-4.07-1.69h0Z"/>
  <path class="cls-1" d="M24.5,6c10.2,0,18.5,8.3,18.5,18.5s-8.3,18.5-18.5,18.5S6,34.7,6,24.5,14.3,6,24.5,6m0-6C10.97,0,0,10.97,0,24.5s10.97,24.5,24.5,24.5,24.5-10.97,24.5-24.5S38.03,0,24.5,0h0Z"/>
</svg>